<?xml version="1.0" standalone="no"?>
<!DOCTYPE svg PUBLIC "-//W3C//DTD SVG 20010904//EN"
 "http://www.w3.org/TR/2001/REC-SVG-20010904/DTD/svg10.dtd">
<svg version="1.0" xmlns="http://www.w3.org/2000/svg"
 viewBox="0 0 2600.000000 2600.000000"
 preserveAspectRatio="xMidYMid meet">
<metadata>
Created by potrace 1.15, written by Peter Selinger 2001-2017
</metadata>
<g transform="translate(0.000000,2600.000000) scale(0.100000,-0.100000)"
fill="#555" stroke="none">
<path d="M23289 21793 l-976 -545 -318 -597 c-175 -328 -320 -600 -323 -605
-3 -5 2 -5 10 0 8 5 374 211 814 457 l799 448 485 681 c525 737 505 708 493
707 -4 0 -447 -246 -984 -546z"/>
<path d="M15775 18309 c-2816 -1539 -6168 -3371 -7448 -4071 -1281 -700 -2335
-1277 -2343 -1283 -9 -7 -143 -788 -429 -2502 -228 -1371 -415 -2499 -415
-2507 0 -8 739 -513 1643 -1123 1302 -878 1648 -1107 1670 -1106 15 1 933 120
2040 263 l2012 260 25 32 c170 214 9228 11843 9226 11845 -2 2 -448 -193 -991
-432 -544 -239 -990 -434 -991 -432 -2 1 217 398 486 882 322 580 484 881 476
883 -8 2 -332 -42 -721 -98 -389 -56 -709 -100 -711 -98 -1 2 357 516 798
1141 440 626 799 1139 797 1141 -2 1 -2308 -1256 -5124 -2795z m3727 1534
c-10 -16 -261 -372 -556 -792 -296 -419 -540 -769 -542 -775 -3 -9 242 23 778
100 430 62 783 112 784 111 1 -1 -701 -590 -1559 -1309 -859 -719 -1562 -1306
-1563 -1305 -1 1 9 97 22 212 13 116 24 216 24 222 0 12 -744 578 -776 590
-19 7 -1635 -888 -1630 -903 3 -6 174 -245 382 -531 l378 -520 176 -32 c96
-18 186 -36 199 -40 21 -6 -9 -34 -288 -268 -305 -255 -313 -261 -344 -252
-18 5 -153 41 -300 81 -228 60 -270 69 -281 57 -18 -19 -730 -911 -739 -925
-3 -6 25 -62 64 -124 l70 -113 -23 -23 c-44 -42 -721 -605 -724 -602 -1 2 101
334 228 738 l230 735 -194 693 c-106 381 -196 698 -200 704 -4 8 -298 -89
-859 -283 l-853 -294 -263 -610 c-242 -562 -261 -611 -245 -623 159 -123 1322
-956 1341 -961 14 -4 196 -34 403 -67 208 -32 378 -61 377 -64 0 -3 -143 -124
-318 -270 l-318 -265 -184 -31 -184 -32 -1100 550 -1100 550 -1250 -777 c-687
-428 -1251 -778 -1252 -779 -1 0 -177 -746 -392 -1656 -216 -910 -394 -1662
-397 -1672 -4 -12 27 -35 128 -96 183 -110 277 -162 460 -257 l158 -81 -282
-236 -282 -236 -320 217 c-177 119 -424 286 -551 371 -190 128 -230 159 -232
180 -1 14 167 1039 375 2278 l377 2253 6575 3594 c3616 1976 6579 3594 6583
3594 5 1 0 -11 -11 -26z m-3239 -3580 c100 -75 182 -137 183 -137 1 -1 -15
-147 -35 -324 l-36 -324 -135 -115 c-74 -63 -145 -121 -157 -130 -21 -14 -46
-11 -309 39 l-286 53 -194 265 c-107 146 -194 267 -194 270 0 7 953 539 968
539 7 1 95 -60 195 -136z m-3416 -1265 c5 -24 59 -217 118 -430 l109 -387
-149 -473 c-81 -260 -154 -494 -162 -519 l-13 -45 -182 28 -181 29 -476 345
c-262 190 -484 351 -494 358 -16 12 -5 40 139 377 86 200 160 368 165 373 8 9
1084 384 1105 385 6 1 15 -18 21 -41z m2168 -1088 c171 -46 313 -85 317 -89 6
-6 -144 -827 -153 -834 -3 -4 -573 -147 -582 -147 -5 0 -420 677 -420 685 1 4
90 118 199 255 l198 248 65 -18 c36 -10 206 -55 376 -100z m-3493 -2061 l427
-214 753 124 c414 68 757 124 761 125 12 2 829 -1385 824 -1398 -4 -10 -2156
-2427 -2210 -2483 l-22 -23 -895 141 -895 141 -35 -39 c-19 -22 -172 -182
-339 -357 l-305 -317 -55 6 c-672 77 -1421 335 -2282 786 -240 126 -249 132
-244 149 2 8 155 654 339 1435 295 1249 338 1422 357 1435 13 8 497 310 1077
671 l1055 656 631 -312 c347 -171 823 -408 1058 -526z"/>
<path d="M10582 10819 c-122 -153 -129 -165 -114 -181 20 -19 596 -474 620
-489 14 -9 89 32 395 216 207 124 376 229 374 233 -2 4 -50 84 -106 179 l-103
171 -91 6 c-51 3 -189 8 -307 11 -118 3 -288 8 -376 11 l-162 7 -130 -164z"/>
<path d="M11644 9497 c-151 -203 -272 -373 -267 -377 4 -4 79 -60 165 -125
107 -79 163 -115 174 -111 35 14 720 400 735 415 17 16 116 397 106 407 -7 7
-56 20 -375 97 l-262 64 -276 -370z"/>
<path d="M8123 9393 l-193 -3 0 -124 c0 -67 3 -163 6 -213 l7 -89 347 -227
c190 -125 352 -227 358 -227 9 0 381 129 389 135 2 1 -57 170 -131 376 l-134
374 -228 0 c-126 0 -316 -1 -421 -2z"/>
<path d="M21190 20595 l-565 -342 -373 -528 c-205 -290 -371 -530 -368 -532 4
-4 967 175 972 181 1 1 897 1534 911 1559 2 4 1 7 -4 6 -4 0 -262 -155 -573
-344z"/>
<path d="M22304 19959 c-390 -254 -717 -468 -726 -477 -22 -22 -869 -1364
-864 -1369 2 -2 311 141 687 319 l682 323 469 829 c257 456 467 831 465 832
-2 2 -322 -204 -713 -457z"/>
</g>
</svg>
